<svg xmlns="http://www.w3.org/2000/svg" viewBox="0 0 1024 1024"><path d="M512 0c283.306667 0 512 228.693333 512 512S795.306667 1024 512 1024 0 795.306667 0 512 228.693333 0 512 0z" fill="#00BE0E" ></path><path d="M170.666667 170.666667h682.666666v682.666666H170.666667z" fill="#FFFFFF" fill-opacity="0" ></path><path d="M645.12 394.24h10.24c-17.066667-97.28-119.466667-172.373333-240.64-172.373333C279.893333 221.866667 170.666667 314.026667 170.666667 426.666667c0 66.56 37.546667 124.586667 95.573333 162.133333l1.706667 1.706667-23.893334 73.386666 88.746667-44.373333s3.413333 0 3.413333 1.706667c23.893333 6.826667 49.493333 10.24 76.8 10.24h17.066667c-3.413333-17.066667-6.826667-34.133333-6.826667-51.2 0-102.4 98.986667-186.026667 221.866667-186.026667z m-145.066667-71.68c18.773333 0 34.133333 15.36 34.133334 32.426667 0 18.773333-15.36 32.426667-34.133334 32.426666-18.773333 0-34.133333-15.36-34.133333-32.426666s15.36-32.426667 34.133333-32.426667z m-170.666666 66.56c-18.773333 0-34.133333-15.36-34.133334-32.426667 0-18.773333 15.36-32.426667 34.133334-32.426666 18.773333 0 34.133333 15.36 34.133333 32.426666s-15.36 32.426667-34.133333 32.426667z m110.933333 192.853333c0 95.573333 92.16 172.373333 206.506667 172.373334 22.186667 0 44.373333-3.413333 64.853333-8.533334 1.706667 0 3.413333-1.706667 3.413333-1.706666l75.093334 37.546666-20.48-63.146666s1.706667 0 1.706666-1.706667c49.493333-30.72 80.213333-81.92 80.213334-136.533333 1.706667-93.866667-90.453333-170.666667-204.8-170.666667-112.64 0-206.506667 76.8-206.506667 172.373333z m249.173333-59.733333c0-15.36 13.653333-27.306667 29.013334-27.306667 15.36 0 29.013333 11.946667 29.013333 27.306667s-13.653333 27.306667-29.013333 27.306667c-15.36 1.706667-29.013333-11.946667-29.013334-27.306667z m-143.36 0c0-15.36 13.653333-27.306667 29.013334-27.306667 15.36 0 29.013333 11.946667 29.013333 27.306667s-13.653333 27.306667-29.013333 27.306667c-15.36 1.706667-29.013333-11.946667-29.013334-27.306667z" fill="#FFFFFF" ></path></svg>